<svg width="118" height="117" viewBox="0 0 118 117" fill="none" xmlns="http://www.w3.org/2000/svg">
<path fill-rule="evenodd" clip-rule="evenodd" d="M51.3043 67.5214V93.2892C44.732 91.8665 38.8323 88.6593 34.1477 84.2055L51.3043 67.5214ZM66.6957 52.5541L67.0108 52.2477L66.6957 51.9291V23.7108C82.8318 27.2038 94.913 41.453 94.913 58.5C94.913 75.547 82.8318 89.7962 66.6957 93.2892L66.6957 52.5541ZM51.3044 46.1459L25.4663 71.2722C23.9293 67.3076 23.087 63.0013 23.087 58.5C23.087 41.453 35.1682 27.2038 51.3044 23.7108V46.1459ZM59 117C91.5848 117 118 90.8087 118 58.5C118 26.1913 91.5848 0 59 0C26.4152 0 0 26.1913 0 58.5C0 90.8087 26.4152 117 59 117Z" fill="#DD4D2A"/>
</svg>
