<svg width="501" height="38" viewBox="0 0 501 38" fill="none" xmlns="http://www.w3.org/2000/svg">
<path d="M83.259 28.877H93.769V35.9404H67.9834L81.0889 21.686C82.9612 19.6436 84.7483 16.7501 84.7483 13.8141C84.7483 11.7717 83.3016 9.64419 81.0889 9.64419C78.8338 9.64419 77.5998 11.3888 77.5998 13.5588C77.5998 13.9843 77.6424 14.4524 77.7275 14.9205H68.5366C68.7919 7.55922 73.4724 2.58081 81.0464 2.58081C87.7694 2.58081 93.4286 7.00606 93.4286 13.9843C93.4286 18.5798 91.5138 21.2605 88.2374 24.239L83.259 28.877Z" fill="white"/>
<path d="M15.2756 28.877H25.7856V35.9404H0L13.1056 21.686C14.9778 19.6436 16.7649 16.7501 16.7649 13.8141C16.7649 11.7717 15.3182 9.64419 13.1056 9.64419C10.8504 9.64419 9.61641 11.3888 9.61641 13.5588C9.61641 13.9843 9.65896 14.4524 9.74406 14.9205H0.553156C0.808459 7.55922 5.48901 2.58081 13.063 2.58081C19.786 2.58081 25.4452 7.00606 25.4452 13.9843C25.4452 18.5798 23.5304 21.2605 20.254 24.239L15.2756 28.877Z" fill="white"/>
<circle cx="47.0356" cy="19.5771" r="17.7866" fill="black"/>
<path fill-rule="evenodd" clip-rule="evenodd" d="M113.043 21.9857V29.9943C111.017 29.5521 109.199 28.5553 107.756 27.1711L113.043 21.9857ZM117.786 17.3338L117.883 17.2386L117.786 17.1396V8.36931C122.758 9.45496 126.481 13.8836 126.481 19.1818C126.481 24.48 122.758 28.9087 117.786 29.9943L117.786 17.3338ZM113.043 15.3421L105.08 23.1514C104.607 21.9192 104.347 20.5808 104.347 19.1818C104.347 13.8836 108.07 9.45495 113.043 8.36931V15.3421ZM115.414 37.3636C125.456 37.3636 133.596 29.2234 133.596 19.1818C133.596 9.14028 125.456 1 115.414 1C105.373 1 97.2324 9.14028 97.2324 19.1818C97.2324 29.2234 105.373 37.3636 115.414 37.3636Z" fill="black"/>
<path d="M459.021 2.42358H500.001V36.5889H491.426V36.1375H467.596V36.5889H459.021V2.42358ZM467.596 7.74922V30.1801H491.426V7.74922H467.596ZM482.535 13.3005V14.0678H490.794V17.3173H468.273V14.0678H476.487V13.3005H468.814V8.38107H490.207V13.3005H482.535ZM484.204 10.6377H474.817V11.4049H484.204V10.6377ZM490.658 29.4128H468.363V18.0394H490.658V29.4128ZM485.919 20.7022H473.147V26.4341H485.919V20.7022ZM485.107 25.6668H473.914V21.4695H485.107V25.6668ZM480.729 22.9589H478.337V24.042H480.729V22.9589Z" fill="white" stroke="white" stroke-width="0.5" stroke-miterlimit="10"/>
<path d="M444.353 27.698C444.984 27.698 445.421 27.4723 445.661 27.021C445.902 26.5396 446.023 25.8475 446.023 24.9449C446.023 24.5236 446.007 24.1325 445.977 23.7714C445.947 23.3803 445.917 23.0493 445.887 22.7785C448.986 23.8316 452.055 24.4785 455.094 24.7192C455.094 27.7581 454.853 30.0599 454.372 31.6245C453.891 33.1891 453.018 34.3174 451.754 35.0094C450.521 35.6714 448.64 36.0625 446.113 36.1829C442.923 36.3032 440.622 36.3634 439.208 36.3634C437.523 36.3634 435.883 36.3183 434.288 36.228C431.67 36.1076 429.745 35.8218 428.511 35.3705C427.308 34.9192 426.525 34.2873 426.164 33.4749C425.833 32.6324 425.668 31.4139 425.668 29.8192V15.783L424.765 15.8733V17.814H422.87V23.1847L424.855 22.598C424.585 25.0051 424.449 27.9387 424.449 31.3988C423.186 31.9705 421.455 32.5723 419.259 33.2041C417.063 33.8059 415.122 34.2723 413.437 34.6032C413.226 31.444 412.85 28.3449 412.309 25.3059C412.94 25.2458 413.617 25.1555 414.34 25.0351V17.814H412.579V9.41931H414.34V2.96537H422.87V9.41931H424.269V7.70428L425.668 7.61401V2.92024H434.92V6.89189L436.003 6.80163V1.70166H444.578V6.16977L455.5 5.35739C455.5 9.08834 455.38 12.1874 455.139 14.6547C454.899 17.0918 454.387 19.0626 453.605 20.567C452.853 22.0414 451.709 22.7785 450.175 22.7785C448.881 22.7785 447.512 22.613 446.068 22.2821C445.797 20.8378 445.556 19.7246 445.346 18.9423C445.165 18.16 444.909 17.483 444.578 16.9113V25.8927H436.003V14.9255L434.92 15.0157V26.2989C434.92 26.9006 435.116 27.2918 435.507 27.4723C435.898 27.6227 436.485 27.698 437.267 27.698H444.353ZM444.578 14.1582V16.4148C445.21 16.3547 445.677 16.1741 445.977 15.8733C446.278 15.5423 446.444 14.9255 446.474 14.0228L444.578 14.1582Z" fill="white" stroke="white" stroke-width="0.5" stroke-miterlimit="10"/>
<path d="M369.251 8.96796H378.729V8.33611H368.259V2.64941H410.141V8.33611H399.671V8.96796H409.149V17.0015H369.251V8.96796ZM388.343 8.96796H390.058V8.33611H388.343V8.96796ZM380.128 12.2626H378.413V13.1201H380.128V12.2626ZM390.058 13.1201V12.2626H388.343V13.1201H390.058ZM398.272 13.1201H399.987V12.2626H398.272V13.1201ZM409.419 21.7856H368.89V17.5431H409.419V21.7856ZM401.431 27.4271C404.169 28.3599 407.403 29.1422 411.134 29.774C410.743 30.2855 410.066 31.113 409.103 32.2563C408.893 32.497 408.366 33.1289 407.524 34.1519C406.681 35.1749 406.019 36.0474 405.538 36.7696C403.642 36.1678 401.596 35.1899 399.4 33.836C397.234 32.482 395.443 31.0979 394.029 29.6838V32.6625C394.029 33.8359 393.668 34.7085 392.946 35.2802C392.254 35.8218 391.065 36.1979 389.381 36.4085C387.696 36.589 385.108 36.6793 381.618 36.6793L381.347 35.6864C381.317 35.5359 381.197 35.1147 380.986 34.4227C380.805 33.7306 380.58 33.1138 380.309 32.5722C379.045 33.4749 377.691 34.3023 376.247 35.0545C374.833 35.8067 373.494 36.3784 372.23 36.7696C371.749 36.0474 371.087 35.1749 370.244 34.1519C369.402 33.1289 368.875 32.497 368.665 32.2563C367.702 31.113 367.025 30.2855 366.634 29.774C370.365 29.1422 373.599 28.3599 376.337 27.4271H368.078V22.3723H410.322V27.4271H401.431ZM383.874 29.1422V27.4271H381.121L383.874 29.1422ZM394.029 27.4271V29.0519L396.647 27.4271H394.029ZM382.024 31.2634C382.776 31.2634 383.273 31.2032 383.513 31.0829C383.754 30.9625 383.874 30.6917 383.874 30.2705V29.5032C383.393 30.0147 382.776 30.6015 382.024 31.2634Z" fill="white" stroke="white" stroke-width="0.5" stroke-miterlimit="10"/>
<path d="M364.783 2.55908V29.5934C364.783 31.7598 364.603 33.2642 364.242 34.1067C363.911 34.9191 363.113 35.4757 361.85 35.7766C360.586 36.0775 358.359 36.2129 355.17 36.1828C355.11 34.0465 354.944 32.1058 354.674 30.3607H352.327V36.0022H344.835V30.3607H342.397C342.187 31.6244 341.856 32.7226 341.405 33.6554L340.863 34.8288C340.622 35.5208 340.321 36.0624 339.96 36.4536C338.576 35.7916 337.298 35.25 336.124 34.8288C334.981 34.3775 333.822 34.0615 332.649 33.881V36.2279H323.352V2.55908H343.661V18.1298H332.649V33.2492C333.612 32.5571 334.319 31.8049 334.77 30.9925L335.086 30.3607H333.326V24.8997H335.718V23.9067H333.326V18.8519H354.719V23.9067H352.327V24.8997H354.719V27.2014C355.02 27.1713 355.215 27.051 355.305 26.8404C355.426 26.6297 355.486 26.2235 355.486 25.6218V18.1298H344.519V2.55908H364.783ZM336.169 7.52365H332.649V8.4263H336.169V7.52365ZM351.966 7.52365V8.4263H355.486V7.52365H351.966ZM336.169 12.8493V11.9015H332.649V12.8493H336.169ZM351.966 12.8493H355.486V11.9015H351.966V12.8493ZM344.835 24.8997V23.9067H342.804L342.759 24.8997H344.835Z" fill="white" stroke="white" stroke-width="0.5" stroke-miterlimit="10"/>
<path d="M317.62 27.5173C318.252 27.4572 319.47 27.2917 321.276 27.0209C320.584 28.1943 320.117 29.443 319.876 30.7669C319.666 32.0908 319.47 33.8509 319.29 36.0474C313.874 36.258 309.331 36.3633 305.66 36.3633C300.635 36.3633 296.618 36.1226 293.609 35.6412C290.601 35.1598 287.968 34.3775 285.711 33.2943C284.267 34.2571 282.101 35.4306 279.212 36.8146L278.986 35.912C278.475 33.7155 278.024 31.9403 277.633 30.5864C277.241 29.2023 276.775 27.8934 276.233 26.6598C276.986 26.4793 277.693 26.2386 278.355 25.9377C279.017 25.6368 279.543 25.3359 279.934 25.0351V21.7404H277.226L277.271 14.2935H289.547V27.0209C289.788 27.0811 290.661 27.2465 292.165 27.5173C291.232 26.2536 290.465 25.2908 289.863 24.6289C293.083 24.6289 296.077 24.343 298.845 23.7713H290.36V20.0254H295.956V19.2581H290.676V16.2794H295.956V15.5121H293.7C291.654 15.5121 290.631 14.7298 290.631 13.1652V12.4431L290.179 13.8422C285.967 12.6086 281.604 11.6006 277.091 10.8183L279.754 3.01041C284.056 4.03341 287.682 5.01128 290.631 5.94402V2.55908H304.712V10.4573H296.588V10.6378C296.588 11.1493 296.633 11.4502 296.724 11.5404C296.814 11.6006 297.009 11.6307 297.31 11.6307C297.641 11.6307 297.882 11.6307 298.032 11.6307C298.424 11.6307 298.694 11.5705 298.845 11.4502C298.995 11.3298 299.07 11.0741 299.07 10.6829L304.757 11.4953C304.757 13.2103 304.246 14.3838 303.223 15.0156H303.448V16.2794H306.653V15.1962C305.78 14.8652 305.344 14.1882 305.344 13.1652V7.92985H312.926V7.16259H305.344V2.55908H319.561V10.4573H311.437V10.6378C311.437 11.0289 311.452 11.2847 311.482 11.405C311.542 11.5254 311.692 11.6006 311.933 11.6307C312.174 11.6307 312.505 11.6307 312.926 11.6307C313.227 11.6307 313.453 11.5705 313.603 11.4502C313.754 11.3298 313.829 11.0741 313.829 10.6829L320.102 11.4953C320.102 12.8794 319.711 13.9024 318.929 14.5643C318.146 15.1962 317.169 15.5121 315.995 15.5121H314.1V16.2794H319.651V19.2581H314.1V20.0254H320.012V23.7713H310.94C313.648 24.343 316.657 24.6289 319.967 24.6289C319.154 25.4713 318.372 26.4342 317.62 27.5173ZM298.168 7.92985V7.16259H292.346L292.075 7.92985H298.168ZM306.653 19.2581H303.448V20.0254H306.653V19.2581ZM304.893 25.8023L306.156 23.7713H303.629L304.893 25.8023ZM305.073 28.2395C306.006 28.2395 307.375 28.2094 309.18 28.1492C308.037 27.8182 306.608 27.3669 304.893 26.7952C303.147 27.397 301.718 27.8634 300.605 28.1943C301.508 28.2244 302.997 28.2395 305.073 28.2395Z" fill="white" stroke="white" stroke-width="0.5" stroke-miterlimit="10"/>
<path d="M260.392 15.918C262.559 21.2737 267.914 24.8091 276.459 26.5241C275.045 28.1188 273.947 29.6984 273.165 31.263C272.383 32.8276 271.495 34.9037 270.502 37.4913C267.252 36.5285 264.108 34.8886 261.069 32.5718C258.06 30.225 255.638 27.2913 253.803 23.771C251.968 27.2613 249.53 30.1798 246.492 32.5267C243.453 34.8736 240.323 36.5285 237.104 37.4913C236.111 34.9037 235.223 32.8276 234.441 31.263C233.659 29.6984 232.561 28.1188 231.146 26.5241C239.661 24.8692 244.987 21.3339 247.123 15.918H233.223V5.94369H248.252L248.297 1.7915L259.354 1.88177L259.309 5.94369H274.383V15.918H260.392Z" fill="white" stroke="white" stroke-width="0.5" stroke-miterlimit="10"/>
<path d="M224.602 19.8903C225.535 20.4921 226.347 20.9584 227.039 21.2894C227.731 21.6204 228.483 21.8761 229.296 22.0567C229.777 24.554 230.018 26.8858 230.018 29.0522C230.018 31.1584 229.777 32.7681 229.296 33.8814C228.965 34.6637 228.574 35.2353 228.122 35.5964C227.671 35.9274 227.28 36.123 226.949 36.1831C226.618 36.2132 226.212 36.2283 225.73 36.2283H221.262C219.998 36.2283 219.02 36.123 218.328 35.9123C217.667 35.6716 217.185 35.2805 216.884 34.7389C216.613 34.1672 216.478 33.3398 216.478 32.2566C216.478 31.9557 216.508 31.354 216.568 30.4513L217.426 20.0257L216.433 20.116C216.313 24.4788 216.057 27.8336 215.666 30.1805C215.274 32.4973 214.733 34.6637 214.041 36.6796C211.213 35.7168 208.896 35.0247 207.09 34.6035L204.383 34.8743L201.945 35.1451C201.765 30.4814 201.675 26.4947 201.675 23.185L206.278 22.9593C206.278 26.1788 206.398 28.992 206.639 31.3991C207.241 30.0451 207.722 28.5708 208.083 26.9761C208.444 25.3814 208.685 23.3505 208.805 20.8832L207.993 20.9735C207.873 19.439 207.752 18.1602 207.632 17.1372C207.512 16.1142 207.301 14.8355 207 13.301L209.212 13.1656L210.521 10.2771H206.459V6.2603L203.209 10.4125L205.195 10.1417C205.857 13.0302 206.338 15.3018 206.639 16.9567C206.97 18.5815 207.211 20.1912 207.361 21.7859L201.81 22.508L201.72 21.5151L200.862 21.6505V36.5442H192.874V22.5531C191.008 22.7637 189.022 22.9443 186.916 23.0947C186.916 20.3868 186.796 18.1753 186.555 16.4602L189.76 16.37L191.204 14.8806C190.422 14.0682 189.564 13.2408 188.631 12.3983C187.699 11.5558 186.901 10.8939 186.239 10.4125L189.218 4.22934L190.391 5.17712C191.083 4.2143 191.866 2.84528 192.738 1.07007L199.734 2.69484L198.967 3.73288C197.131 6.29039 195.777 8.11073 194.905 9.19391L195.491 9.82577C197.568 7.11782 199.478 4.37978 201.223 1.61166L207.361 3.37182H213.228V1.70192H221.488V3.37182H229.476V10.2771H226.181C227.806 11.8116 229.536 13.2408 231.372 14.5647C230.499 15.2567 229.581 16.1443 228.619 17.2275C227.686 18.3107 226.919 19.3487 226.317 20.3416L225.143 19.2133L224.647 19.2585L224.602 19.8903ZM218.599 10.2771L217.561 12.624L219.682 12.4886C219.261 11.8868 218.96 11.4355 218.78 11.1346L222.074 10.2771H218.599ZM200.501 13.8877C199.659 14.9107 199.057 15.6629 198.696 16.1443L200.907 16.054L200.501 13.8877ZM224.015 26.6602V26.7504C224.015 26.9611 224.06 27.1416 224.151 27.292C224.271 27.4124 224.406 27.4726 224.557 27.4726C224.707 27.4726 224.843 27.3973 224.963 27.2469C225.083 27.0965 225.143 26.8858 225.143 26.615C225.143 25.1106 224.933 23.2151 224.512 20.9284L224.015 26.6602ZM187.503 23.5912C188.105 23.5912 189.037 23.5611 190.301 23.5009L192.106 23.4558C192.106 26.1336 192.061 28.2699 191.971 29.8646C191.911 31.4292 191.7 33.2796 191.339 35.4159C191.129 35.3858 190.557 35.3256 189.624 35.2353C188.722 35.115 187.638 35.0548 186.375 35.0548C186.856 33.069 187.157 31.2787 187.277 29.6841C187.428 28.0894 187.503 26.0584 187.503 23.5912Z" fill="white" stroke="white" stroke-width="0.5" stroke-miterlimit="10"/>
<path d="M180.463 24.4036C181.065 25.3363 181.832 26.0584 182.765 26.5699C183.697 27.0814 184.856 27.4124 186.24 27.5628C185.578 28.8265 185.006 30.1655 184.525 31.5796C184.074 32.9637 183.607 34.7238 183.126 36.8601C181.441 35.8371 179.936 34.4681 178.613 32.7531C178.643 32.9035 178.658 33.1141 178.658 33.3849C178.658 35.0699 177.815 36.0026 176.13 36.1831C174.355 36.3035 172.73 36.3637 171.256 36.3637C169.721 36.3637 168.247 36.3035 166.833 36.1831C165.84 36.0929 165.103 35.8672 164.621 35.5061C164.17 35.115 163.944 34.5584 163.944 33.8362V33.7009C162.861 34.8141 161.492 35.8672 159.837 36.8601C159.326 34.423 158.799 32.4522 158.258 30.9478L158.529 33.6557L158.619 34.6035L156.407 34.8743L154.331 35.1451C154.181 29.9699 154.106 25.9832 154.106 23.185L157.987 22.9593C157.987 25.0053 158.002 26.4646 158.032 27.3372C160.078 26.8858 161.567 25.908 162.5 24.4036H158.529V21.7859L154.241 22.4629L154.151 21.5151L153.293 21.6505V36.5442H146.749V22.5531C145.154 22.7637 143.469 22.9443 141.694 23.0947C141.694 20.3868 141.574 18.1753 141.333 16.4602L144.086 16.37L145.26 14.8806C144.628 14.0983 143.921 13.2859 143.138 12.4435C142.356 11.601 141.679 10.924 141.107 10.4125L143.635 4.22934C144.267 4.8612 144.583 5.17712 144.583 5.17712C145.305 3.97359 145.982 2.60457 146.614 1.07007L152.481 2.69484C150.645 5.70367 149.276 7.87003 148.374 9.19391L148.915 9.82577C150.721 7.11782 152.315 4.37978 153.699 1.61166L159.115 3.46209H167.013L167.329 2.42404H174.776L174.46 3.46209H183.983V24.4036H180.463ZM157.084 10.1417L157.897 15.1514C158.077 16.0541 158.288 17.2877 158.529 18.8523V5.62845L155.414 10.4125L157.084 10.1417ZM165.344 8.78772V9.64524L166.968 8.96825C167.6 9.29922 168.067 9.6001 168.367 9.8709C168.608 9.6001 168.849 9.23905 169.09 8.78772H165.344ZM177.259 9.46471V8.78772H172.745L172.52 9.46471H177.259ZM165.344 12.0373C166.096 11.7063 166.577 11.4806 166.788 11.3603C166.367 11.0293 165.885 10.6983 165.344 10.3674V12.0373ZM172.926 13.5718C173.347 13.2709 173.753 12.8797 174.144 12.3983H171.211L172.926 13.5718ZM166.923 15.3319C166.532 14.7603 166.006 14.0983 165.344 13.3461V15.4673L166.923 15.3319ZM153.338 16.054C153.188 15.0912 153.083 14.4142 153.022 14.0231L152.481 14.8355C152.36 15.016 152.225 15.2116 152.075 15.4222C151.924 15.6328 151.759 15.8735 151.578 16.1443L153.338 16.054ZM169.18 14.2487C168.728 14.6399 168.262 14.9859 167.781 15.2868C168.653 15.1965 169.39 15.0611 169.992 14.8806L169.18 14.2487ZM176.627 16.731L175.137 18.4912H177.259V14.7452C176.897 15.1965 176.446 15.6779 175.905 16.1894L176.627 16.731ZM165.344 18.4912H166.472C166.171 17.7089 165.795 16.9567 165.344 16.2346V18.4912ZM173.783 17.6337C173.422 17.8443 172.821 18.1301 171.978 18.4912H174.686L173.783 17.6337ZM142.145 23.5912C142.717 23.5912 143.514 23.5611 144.537 23.5009L145.982 23.4558V24.9903C145.982 26.9761 145.952 28.7363 145.891 30.2708C145.831 31.8053 145.681 33.5203 145.44 35.4159C145.199 35.3858 144.688 35.3256 143.906 35.2354C143.153 35.115 142.266 35.0548 141.243 35.0548C141.634 33.069 141.875 31.2787 141.965 29.6841C142.085 28.0593 142.145 26.0283 142.145 23.5912ZM170.534 24.4036H164.215C165.659 25.3062 166.923 25.9982 168.006 26.4797H169.044C168.804 26.1788 168.352 25.6974 167.69 25.0354L170.534 24.4036ZM175.995 25.4867C176.807 25.1558 177.62 24.7947 178.432 24.4036H174.641C175.393 25.0354 175.844 25.3965 175.995 25.4867ZM172.61 29.2327C173.031 29.2026 173.242 29.0372 173.242 28.7363C173.242 28.7062 173.182 28.4203 173.061 27.8788L170.759 28.5106L169.676 27.2018L169.451 28.4655C169.421 28.5557 169.405 28.6911 169.405 28.8717C169.405 29.1726 169.556 29.323 169.857 29.323C171.421 29.323 172.339 29.2929 172.61 29.2327ZM173.377 27.8336C173.919 27.9239 174.445 27.969 174.957 27.969C175.348 27.969 175.649 27.954 175.859 27.9239L175.589 27.2018L173.377 27.8336Z" fill="white" stroke="white" stroke-width="0.5" stroke-miterlimit="10"/>
</svg>
