<svg width="521" height="38" viewBox="0 0 521 38" fill="none" xmlns="http://www.w3.org/2000/svg">
<path d="M86.7015 29.0297H97.6459V36.3851H70.7944L84.4417 21.5414C86.3913 19.4146 88.2523 16.4015 88.2523 13.3442C88.2523 11.2173 86.7458 9.00185 84.4417 9.00185C82.0933 9.00185 80.8084 10.8185 80.8084 13.0783C80.8084 13.5214 80.8527 14.0088 80.9413 14.4962H71.3705C71.6363 6.83068 76.5103 1.64648 84.3974 1.64648C91.3983 1.64648 97.2915 6.25466 97.2915 13.5214C97.2915 18.3068 95.2975 21.0983 91.8857 24.2L86.7015 29.0297Z" fill="white"/>
<path d="M15.9071 29.0297H26.8515V36.3851H0L13.6473 21.5414C15.5969 19.4146 17.4579 16.4015 17.4579 13.3442C17.4579 11.2173 15.9514 9.00185 13.6473 9.00185C11.2989 9.00185 10.0139 10.8185 10.0139 13.0783C10.0139 13.5214 10.0582 14.0088 10.1469 14.4962H0.576022C0.841879 6.83068 5.71591 1.64648 13.603 1.64648C20.6039 1.64648 26.497 6.25466 26.497 13.5214C26.497 18.3068 24.5031 21.0983 21.0913 24.2L15.9071 29.0297Z" fill="white"/>
<circle cx="48.9798" cy="19.345" r="18.5218" fill="black"/>
<path fill-rule="evenodd" clip-rule="evenodd" d="M117.716 21.8532V30.1929C115.607 29.7324 113.714 28.6944 112.211 27.2529L117.716 21.8532ZM122.655 17.009L122.757 16.9098L122.655 16.8067V7.67394C127.834 8.80446 131.711 13.4162 131.711 18.9334C131.711 24.4506 127.834 29.0623 122.655 30.1929L122.655 17.009ZM117.716 14.935L109.425 23.0671C108.931 21.784 108.661 20.3902 108.661 18.9334C108.661 13.4162 112.538 8.80446 117.716 7.67394V14.935ZM120.186 37.8668C130.642 37.8668 139.119 29.39 139.119 18.9334C139.119 8.47677 130.642 0 120.186 0C109.729 0 101.252 8.47677 101.252 18.9334C101.252 29.39 109.729 37.8668 120.186 37.8668Z" fill="black"/>
<path d="M477.994 1.48242H520.668V37.06H511.739V36.59H486.924V37.06H477.994V1.48242ZM486.924 7.0282V30.3863H511.739V7.0282H486.924ZM502.48 12.809V13.6079H511.081V16.9918H487.629V13.6079H496.182V12.809H488.193V7.68617H510.47V12.809H502.48ZM504.219 10.0361H494.443V10.835H504.219V10.0361ZM510.94 29.5873H487.723V17.7438H510.94V29.5873ZM506.005 20.5167H492.705V26.4854H506.005V20.5167ZM505.159 25.6865H493.504V21.3156H505.159V25.6865ZM500.6 22.8666H498.109V23.9945H500.6V22.8666Z" fill="white"/>
<path d="M462.72 27.8014C463.378 27.8014 463.832 27.5664 464.083 27.0964C464.334 26.5951 464.459 25.8745 464.459 24.9345C464.459 24.4959 464.443 24.0885 464.412 23.7125C464.381 23.3052 464.349 22.9606 464.318 22.6786C467.545 23.7752 470.741 24.4489 473.906 24.6995C473.906 27.864 473.655 30.261 473.154 31.8902C472.652 33.5195 471.744 34.6944 470.428 35.4151C469.143 36.1044 467.185 36.5117 464.553 36.637C461.232 36.7624 458.835 36.825 457.362 36.825C455.608 36.825 453.9 36.778 452.24 36.684C449.514 36.5587 447.508 36.261 446.224 35.7911C444.971 35.3211 444.156 34.6631 443.78 33.8171C443.435 32.9398 443.263 31.6709 443.263 30.0103V15.3939L442.323 15.4879V17.5088H440.349V23.1016L442.417 22.4906C442.135 24.9972 441.994 28.052 441.994 31.6552C440.678 32.2505 438.877 32.8772 436.589 33.5352C434.302 34.1618 432.281 34.6474 430.527 34.9921C430.307 31.7022 429.916 28.475 429.352 25.3105C430.01 25.2478 430.715 25.1538 431.466 25.0285V17.5088H429.634V8.76715H431.466V2.04642H440.349V8.76715H441.806V6.98122L443.263 6.88722V1.99942H452.898V6.13525L454.026 6.04125V0.730469H462.955V5.38328L474.329 4.53731C474.329 8.42249 474.203 11.6497 473.953 14.2189C473.702 16.7568 473.169 18.8091 472.355 20.3757C471.572 21.911 470.381 22.6786 468.783 22.6786C467.436 22.6786 466.01 22.5063 464.506 22.1616C464.224 20.6577 463.973 19.4984 463.754 18.6837C463.566 17.8691 463.3 17.1641 462.955 16.5688V25.9215H454.026V14.5009L452.898 14.5949V26.3444C452.898 26.9711 453.101 27.3784 453.509 27.5664C453.916 27.7231 454.527 27.8014 455.342 27.8014H462.72ZM462.955 13.7019V16.0519C463.613 15.9892 464.099 15.8012 464.412 15.4879C464.725 15.1432 464.898 14.5009 464.929 13.561L462.955 13.7019Z" fill="white"/>
<path d="M384.515 8.29702H394.385V7.63905H383.481V1.71729H427.095V7.63905H416.192V8.29702H426.062V16.6627H384.515V8.29702ZM404.395 8.29702H406.181V7.63905H404.395V8.29702ZM395.842 11.7279H394.056V12.6208H395.842V11.7279ZM406.181 12.6208V11.7279H404.395V12.6208H406.181ZM414.735 12.6208H416.521V11.7279H414.735V12.6208ZM426.344 21.6445H384.139V17.2267H426.344V21.6445ZM418.025 27.5193C420.876 28.4905 424.244 29.3052 428.129 29.9632C427.722 30.4958 427.017 31.3574 426.015 32.5481C425.795 32.7987 425.247 33.4567 424.37 34.522C423.492 35.5873 422.803 36.4959 422.302 37.2479C420.328 36.6212 418.197 35.6029 415.91 34.193C413.654 32.783 411.79 31.3418 410.317 29.8692V32.971C410.317 34.193 409.941 35.1016 409.189 35.6969C408.469 36.2609 407.231 36.6526 405.476 36.8719C403.722 37.0599 401.027 37.1539 397.393 37.1539L397.111 36.1199C397.079 35.9632 396.954 35.5246 396.735 34.804C396.547 34.0833 396.312 33.441 396.03 32.877C394.714 33.817 393.304 34.6786 391.8 35.4619C390.327 36.2452 388.933 36.8405 387.617 37.2479C387.116 36.4959 386.426 35.5873 385.549 34.522C384.672 33.4567 384.124 32.7987 383.904 32.5481C382.902 31.3574 382.197 30.4958 381.789 29.9632C385.674 29.3052 389.043 28.4905 391.894 27.5193H383.293V22.2555H427.283V27.5193H418.025ZM399.743 29.3052V27.5193H396.876L399.743 29.3052ZM410.317 27.5193V29.2112L413.043 27.5193H410.317ZM397.816 31.5141C398.599 31.5141 399.116 31.4514 399.367 31.3261C399.617 31.2008 399.743 30.9188 399.743 30.4801V29.6812C399.241 30.2138 398.599 30.8248 397.816 31.5141Z" fill="white"/>
<path d="M379.862 1.62354V29.7754C379.862 32.0313 379.674 33.5979 379.298 34.4752C378.954 35.3212 378.123 35.9008 376.807 36.2142C375.491 36.5275 373.173 36.6685 369.852 36.6371C369.789 34.4126 369.617 32.3916 369.335 30.5744H366.891V36.4491H359.089V30.5744H356.551C356.332 31.8903 355.987 33.0339 355.517 34.0052L354.953 35.2272C354.703 35.9478 354.389 36.5118 354.013 36.9191C352.572 36.2298 351.24 35.6658 350.018 35.2272C348.828 34.7572 347.622 34.4282 346.4 34.2402V36.6841H336.718V1.62354H357.867V17.8379H346.4V33.5823C347.402 32.8616 348.139 32.0783 348.609 31.2323L348.938 30.5744H347.105V24.8876H349.595V23.8536H347.105V18.5899H369.382V23.8536H366.891V24.8876H369.382V27.2845C369.695 27.2532 369.899 27.1278 369.993 26.9085C370.118 26.6892 370.181 26.2662 370.181 25.6396V17.8379H358.76V1.62354H379.862ZM350.065 6.79333H346.4V7.73329H350.065V6.79333ZM366.515 6.79333V7.73329H370.181V6.79333H366.515ZM350.065 12.3391V11.3521H346.4V12.3391H350.065ZM366.515 12.3391H370.181V11.3521H366.515V12.3391ZM359.089 24.8876V23.8536H356.974L356.927 24.8876H359.089Z" fill="white"/>
<path d="M330.749 27.6135C331.407 27.5508 332.676 27.3785 334.556 27.0965C333.835 28.3185 333.35 29.6187 333.099 30.9974C332.88 32.376 332.676 34.2089 332.488 36.4961C326.848 36.7155 322.117 36.8251 318.295 36.8251C313.062 36.8251 308.879 36.5745 305.746 36.0732C302.613 35.5718 299.871 34.7572 297.521 33.6293C296.018 34.6319 293.762 35.8538 290.754 37.2951L290.519 36.3551C289.986 34.0679 289.516 32.2193 289.109 30.8094C288.701 29.3681 288.216 28.0051 287.652 26.7205C288.435 26.5325 289.171 26.2819 289.861 25.9686C290.55 25.6552 291.098 25.3419 291.506 25.0286V21.5977H288.686L288.733 13.843H301.516V27.0965C301.767 27.1592 302.676 27.3315 304.242 27.6135C303.271 26.2975 302.472 25.2949 301.845 24.6056C305.198 24.6056 308.315 24.308 311.198 23.7127H302.362V19.8118H308.19V19.0128H302.691V15.911H308.19V15.112H305.84C303.71 15.112 302.644 14.2974 302.644 12.6681V11.9161L302.174 13.3731C297.788 12.0884 293.245 11.0388 288.545 10.2242L291.318 2.09352C295.798 3.15881 299.574 4.1771 302.644 5.14839V1.62354H317.308V9.84821H308.848V10.0362C308.848 10.5688 308.895 10.8822 308.989 10.9762C309.083 11.0388 309.287 11.0702 309.6 11.0702C309.945 11.0702 310.195 11.0702 310.352 11.0702C310.759 11.0702 311.041 11.0075 311.198 10.8822C311.355 10.7568 311.433 10.4905 311.433 10.0832L317.355 10.9292C317.355 12.7151 316.822 13.937 315.757 14.595H315.992V15.911H319.329V14.783C318.42 14.4384 317.966 13.7334 317.966 12.6681V7.21631H325.861V6.41734H317.966V1.62354H332.77V9.84821H324.31V10.0362C324.31 10.4435 324.326 10.7098 324.357 10.8352C324.42 10.9605 324.577 11.0388 324.827 11.0702C325.078 11.0702 325.423 11.0702 325.861 11.0702C326.175 11.0702 326.41 11.0075 326.566 10.8822C326.723 10.7568 326.801 10.4905 326.801 10.0832L333.334 10.9292C333.334 12.3704 332.927 13.4357 332.112 14.125C331.297 14.783 330.279 15.112 329.057 15.112H327.083V15.911H332.864V19.0128H327.083V19.8118H333.24V23.7127H323.793C326.613 24.308 329.747 24.6056 333.193 24.6056C332.347 25.4829 331.532 26.4855 330.749 27.6135ZM310.493 7.21631V6.41734H304.43L304.148 7.21631H310.493ZM319.329 19.0128H315.992V19.8118H319.329V19.0128ZM317.496 25.8276L318.812 23.7127H316.18L317.496 25.8276ZM317.684 28.3655C318.655 28.3655 320.081 28.3341 321.96 28.2715C320.77 27.9268 319.282 27.4568 317.496 26.8615C315.678 27.4882 314.19 27.9738 313.031 28.3185C313.971 28.3498 315.522 28.3655 317.684 28.3655Z" fill="white"/>
<path d="M271.156 15.5346C273.412 21.1117 278.989 24.7933 287.887 26.5792C286.414 28.2398 285.271 29.8847 284.456 31.514C283.642 33.1433 282.717 35.3052 281.683 37.9997C278.299 36.9971 275.025 35.2895 271.861 32.8769C268.727 30.433 266.205 27.3782 264.294 23.7123C262.383 27.3468 259.845 30.386 256.68 32.8299C253.516 35.2738 250.257 36.9971 246.905 37.9997C245.871 35.3052 244.946 33.1433 244.132 31.514C243.317 29.8847 242.174 28.2398 240.701 26.5792C249.568 24.8559 255.114 21.1744 257.338 15.5346H242.863V5.14805H258.513L258.56 0.824219L270.075 0.918217L270.028 5.14805H285.725V15.5346H271.156Z" fill="white"/>
<path d="M233.886 19.671C234.858 20.2976 235.704 20.7833 236.424 21.1279C237.145 21.4726 237.928 21.7389 238.774 21.9269C239.276 24.5274 239.526 26.9557 239.526 29.2116C239.526 31.4048 239.276 33.0811 238.774 34.2404C238.43 35.055 238.022 35.6503 237.552 36.0263C237.082 36.371 236.675 36.5746 236.33 36.6373C235.986 36.6686 235.563 36.6843 235.061 36.6843H230.409C229.093 36.6843 228.074 36.5746 227.354 36.3553C226.664 36.1046 226.163 35.6973 225.85 35.1333C225.568 34.538 225.427 33.6764 225.427 32.5485C225.427 32.2351 225.458 31.6085 225.521 30.6685L226.414 19.812L225.38 19.906C225.254 24.4491 224.988 27.9426 224.581 30.3865C224.173 32.7991 223.609 35.055 222.889 37.1543C219.944 36.1516 217.531 35.431 215.651 34.9924L212.831 35.2743L210.293 35.5563C210.105 30.6999 210.011 26.5484 210.011 23.1018L214.805 22.8668C214.805 26.2194 214.93 29.1489 215.181 31.6555C215.808 30.2455 216.309 28.7103 216.685 27.0497C217.061 25.3891 217.312 23.2742 217.437 20.7049L216.591 20.7989C216.466 19.201 216.34 17.8694 216.215 16.8041C216.09 15.7388 215.87 14.4072 215.557 12.8092L217.86 12.6682L219.223 9.66037H214.993V5.47754L211.609 9.80136L213.677 9.51937C214.367 12.5273 214.868 14.8928 215.181 16.6161C215.526 18.308 215.776 19.9843 215.933 21.6449L210.152 22.3969L210.058 21.3629L209.165 21.5039V37.0133H200.847V22.4439C198.904 22.6632 196.836 22.8512 194.643 23.0078C194.643 20.1879 194.518 17.885 194.267 16.0991L197.604 16.0051L199.108 14.4542C198.293 13.6082 197.4 12.7466 196.429 11.8693C195.458 10.992 194.627 10.3027 193.938 9.80136L197.04 3.36262L198.262 4.34958C198.982 3.34696 199.797 1.92135 200.706 0.0727539L207.99 1.76469L207.191 2.84564C205.28 5.50887 203.87 7.40446 202.962 8.53241L203.573 9.19039C205.735 6.3705 207.724 3.51928 209.541 0.63673L215.933 2.46966H222.043V0.730728H230.644V2.46966H238.962V9.66037H235.531C237.223 11.2583 239.025 12.7466 240.936 14.1252C240.027 14.8458 239.072 15.7701 238.069 16.8981C237.098 18.026 236.299 19.107 235.672 20.1409L234.45 18.966L233.933 19.013L233.886 19.671ZM227.636 9.66037L226.555 12.1043L228.764 11.9633C228.325 11.3366 228.012 10.8667 227.824 10.5533L231.254 9.66037H227.636ZM208.789 13.4202C207.912 14.4855 207.285 15.2688 206.909 15.7701L209.212 15.6761L208.789 13.4202ZM233.275 26.7207V26.8147C233.275 27.034 233.322 27.222 233.416 27.3787C233.542 27.504 233.683 27.5667 233.839 27.5667C233.996 27.5667 234.137 27.4883 234.262 27.3317C234.388 27.175 234.45 26.9557 234.45 26.6737C234.45 25.1071 234.231 23.1332 233.792 20.7519L233.275 26.7207ZM195.254 23.5248C195.881 23.5248 196.852 23.4935 198.168 23.4308L200.048 23.3838C200.048 26.1724 200.001 28.397 199.907 30.0576C199.844 31.6868 199.625 33.6137 199.249 35.8383C199.029 35.807 198.434 35.7443 197.463 35.6503C196.523 35.525 195.395 35.4623 194.079 35.4623C194.58 33.3944 194.894 31.5302 195.019 29.8696C195.176 28.209 195.254 26.094 195.254 23.5248Z" fill="white"/>
<path d="M187.922 24.3708C188.549 25.3421 189.348 26.094 190.319 26.6267C191.29 27.1593 192.497 27.504 193.938 27.6606C193.249 28.9766 192.653 30.3709 192.152 31.8435C191.682 33.2848 191.196 35.1177 190.695 37.3423C188.94 36.277 187.374 34.8514 185.995 33.0654C186.026 33.2221 186.042 33.4414 186.042 33.7234C186.042 35.478 185.165 36.4493 183.41 36.6373C181.562 36.7626 179.87 36.8253 178.334 36.8253C176.737 36.8253 175.201 36.7626 173.729 36.6373C172.695 36.5433 171.927 36.3083 171.426 35.9323C170.956 35.525 170.721 34.9454 170.721 34.1934V34.0524C169.593 35.2117 168.167 36.3083 166.444 37.3423C165.911 34.8044 165.363 32.7521 164.799 31.1855L165.081 34.0054L165.175 34.9924L162.872 35.2743L160.71 35.5563C160.553 30.1672 160.475 26.0157 160.475 23.1018L164.517 22.8668C164.517 24.9974 164.533 26.517 164.564 27.4257C166.695 26.9557 168.246 25.9374 169.217 24.3708H165.081V21.6449L160.616 22.3499L160.522 21.3629L159.629 21.5039V37.0133H152.814V22.4439C151.154 22.6632 149.399 22.8512 147.551 23.0078C147.551 20.1879 147.425 17.885 147.175 16.0991L150.042 16.0051L151.264 14.4542C150.606 13.6395 149.869 12.7936 149.055 11.9163C148.24 11.039 147.535 10.334 146.94 9.80136L149.572 3.36262C150.23 4.0206 150.559 4.34958 150.559 4.34958C151.311 3.0963 152.015 1.67069 152.673 0.0727539L158.783 1.76469C156.872 4.89789 155.446 7.1538 154.506 8.53242L155.07 9.19039C156.95 6.3705 158.611 3.51928 160.052 0.63673L165.692 2.56365H173.917L174.246 1.4827H182L181.671 2.56365H191.588V24.3708H187.922ZM163.577 9.51937L164.423 14.7362C164.611 15.6761 164.83 16.9607 165.081 18.59V4.81956L161.838 9.80136L163.577 9.51937ZM172.178 8.10943V9.0024L173.87 8.29742C174.528 8.64208 175.013 8.9554 175.327 9.23739C175.577 8.9554 175.828 8.57941 176.079 8.10943H172.178ZM184.585 8.8144V8.10943H179.885L179.65 8.8144H184.585ZM172.178 11.4933C172.961 11.1486 173.462 10.9137 173.682 10.7883C173.243 10.4437 172.742 10.099 172.178 9.75437V11.4933ZM180.073 13.0912C180.512 12.7779 180.935 12.3706 181.342 11.8693H178.287L180.073 13.0912ZM173.823 14.9242C173.415 14.3288 172.867 13.6395 172.178 12.8562V15.0652L173.823 14.9242ZM159.676 15.6761C159.52 14.6735 159.41 13.9685 159.347 13.5612L158.783 14.4072C158.658 14.5952 158.517 14.7988 158.36 15.0182C158.204 15.2375 158.031 15.4881 157.843 15.7701L159.676 15.6761ZM176.173 13.7962C175.703 14.2035 175.217 14.5638 174.716 14.8772C175.624 14.7832 176.392 14.6422 177.018 14.4542L176.173 13.7962ZM183.927 16.3811L182.376 18.214H184.585V14.3132C184.209 14.7832 183.739 15.2845 183.175 15.8171L183.927 16.3811ZM172.178 18.214H173.353C173.039 17.3994 172.648 16.6161 172.178 15.8641V18.214ZM180.966 17.3211C180.59 17.5404 179.964 17.838 179.086 18.214H181.906L180.966 17.3211ZM148.021 23.5248C148.616 23.5248 149.446 23.4935 150.512 23.4308L152.015 23.3838V24.9818C152.015 27.0497 151.984 28.8826 151.921 30.4805C151.859 32.0785 151.702 33.8644 151.452 35.8383C151.201 35.807 150.668 35.7443 149.854 35.6503C149.07 35.525 148.146 35.4623 147.081 35.4623C147.488 33.3944 147.739 31.5302 147.833 29.8696C147.958 28.1776 148.021 26.0627 148.021 23.5248ZM177.582 24.3708H171.003C172.507 25.3107 173.823 26.0314 174.951 26.5327H176.032C175.781 26.2194 175.311 25.7181 174.622 25.0288L177.582 24.3708ZM183.269 25.4987C184.115 25.1541 184.961 24.7781 185.807 24.3708H181.859C182.643 25.0288 183.113 25.4047 183.269 25.4987ZM179.744 29.3996C180.183 29.3682 180.402 29.1959 180.402 28.8826C180.402 28.8513 180.34 28.5536 180.214 27.9896L177.817 28.6476L176.69 27.2847L176.455 28.6006C176.423 28.6946 176.408 28.8356 176.408 29.0236C176.408 29.3369 176.564 29.4936 176.877 29.4936C178.507 29.4936 179.462 29.4622 179.744 29.3996ZM180.543 27.9426C181.107 28.0366 181.656 28.0836 182.188 28.0836C182.596 28.0836 182.909 28.068 183.128 28.0366L182.846 27.2847L180.543 27.9426Z" fill="white"/>
</svg>
